<svg width="80" height="85" viewBox="0 0 80 85" fill="none" xmlns="http://www.w3.org/2000/svg">
<g id="state=down">
<g id="Vector">
<path d="M45 68.5C45 70.433 42.7614 72 40 72C37.2386 72 35 70.433 35 68.5C35 66.567 37.2386 65 40 65C42.7614 65 45 66.567 45 68.5Z" fill="url(#paint0_radial_960_4483)"/>
<path d="M42 68.5C42 69.3284 41.1046 70 40 70C38.8954 70 38 69.3284 38 68.5C38 67.6716 38.8954 67 40 67C41.1046 67 42 67.6716 42 68.5Z" fill="#71787E"/>
</g>
<g id="Vector_2" filter="url(#filter0_dd_960_4483)">
<path d="M38 49C38 47.8954 38.8954 47 40 47C41.1046 47 42 47.8954 42 49V68C42 69.1046 41.1046 70 40 70C38.8954 70 38 69.1046 38 68V49Z" fill="#5437A8"/>
<path d="M61 29C61 40.598 51.598 50 40 50C28.402 50 19 40.598 19 29C19 17.402 28.402 8 40 8C51.598 8 61 17.402 61 29Z" fill="#714DD8"/>
<path d="M48 29C48 33.4183 44.4183 37 40 37C35.5817 37 32 33.4183 32 29C32 24.5817 35.5817 21 40 21C44.4183 21 48 24.5817 48 29Z" fill="white"/>
</g>
</g>
<defs>
<filter id="filter0_dd_960_4483" x="8" y="1" width="64" height="84" filterUnits="userSpaceOnUse" color-interpolation-filters="sRGB">
<feFlood flood-opacity="0" result="BackgroundImageFix"/>
<feColorMatrix in="SourceAlpha" type="matrix" values="0 0 0 0 0 0 0 0 0 0 0 0 0 0 0 0 0 0 127 0" result="hardAlpha"/>
<feOffset dy="1"/>
<feGaussianBlur stdDeviation="1.5"/>
<feColorMatrix type="matrix" values="0 0 0 0 0 0 0 0 0 0 0 0 0 0 0 0 0 0 0.3 0"/>
<feBlend mode="normal" in2="BackgroundImageFix" result="effect1_dropShadow_960_4483"/>
<feColorMatrix in="SourceAlpha" type="matrix" values="0 0 0 0 0 0 0 0 0 0 0 0 0 0 0 0 0 0 127 0" result="hardAlpha"/>
<feMorphology radius="3" operator="dilate" in="SourceAlpha" result="effect2_dropShadow_960_4483"/>
<feOffset dy="4"/>
<feGaussianBlur stdDeviation="4"/>
<feColorMatrix type="matrix" values="0 0 0 0 0 0 0 0 0 0 0 0 0 0 0 0 0 0 0.15 0"/>
<feBlend mode="normal" in2="effect1_dropShadow_960_4483" result="effect2_dropShadow_960_4483"/>
<feBlend mode="normal" in="SourceGraphic" in2="effect2_dropShadow_960_4483" result="shape"/>
</filter>
<radialGradient id="paint0_radial_960_4483" cx="0" cy="0" r="1" gradientUnits="userSpaceOnUse" gradientTransform="translate(40 68.5) rotate(90) scale(3.5 5)">
<stop stop-color="#71787E"/>
<stop offset="1" stop-color="#71787E" stop-opacity="0"/>
</radialGradient>
</defs>
</svg>
