<svg width="88" height="92" viewBox="0 0 88 92" fill="none" xmlns="http://www.w3.org/2000/svg">
<g id="state=up">
<g id="Vector" filter="url(#filter0_dd_960_4478)">
<path d="M42 48C42 46.8954 42.8954 46 44 46C45.1046 46 46 46.8954 46 48V67C46 68.1046 45.1046 69 44 69C42.8954 69 42 68.1046 42 67V48Z" fill="#5437A8"/>
<path d="M65 28C65 39.598 55.598 49 44 49C32.402 49 23 39.598 23 28C23 16.402 32.402 7 44 7C55.598 7 65 16.402 65 28Z" fill="#714DD8"/>
<path d="M52 28C52 32.4183 48.4183 36 44 36C39.5817 36 36 32.4183 36 28C36 23.5817 39.5817 20 44 20C48.4183 20 52 23.5817 52 28Z" fill="white"/>
</g>
<g id="Vector_2">
<path d="M49 84.5C49 86.433 46.7614 88 44 88C41.2386 88 39 86.433 39 84.5C39 82.567 41.2386 81 44 81C46.7614 81 49 82.567 49 84.5Z" fill="url(#paint0_radial_960_4478)"/>
<path d="M46 84.5C46 85.3284 45.1046 86 44 86C42.8954 86 42 85.3284 42 84.5C42 83.6716 42.8954 83 44 83C45.1046 83 46 83.6716 46 84.5Z" fill="#71787E"/>
</g>
</g>
<defs>
<filter id="filter0_dd_960_4478" x="12" y="0" width="64" height="84" filterUnits="userSpaceOnUse" color-interpolation-filters="sRGB">
<feFlood flood-opacity="0" result="BackgroundImageFix"/>
<feColorMatrix in="SourceAlpha" type="matrix" values="0 0 0 0 0 0 0 0 0 0 0 0 0 0 0 0 0 0 127 0" result="hardAlpha"/>
<feOffset dy="1"/>
<feGaussianBlur stdDeviation="1.5"/>
<feColorMatrix type="matrix" values="0 0 0 0 0 0 0 0 0 0 0 0 0 0 0 0 0 0 0.3 0"/>
<feBlend mode="normal" in2="BackgroundImageFix" result="effect1_dropShadow_960_4478"/>
<feColorMatrix in="SourceAlpha" type="matrix" values="0 0 0 0 0 0 0 0 0 0 0 0 0 0 0 0 0 0 127 0" result="hardAlpha"/>
<feMorphology radius="3" operator="dilate" in="SourceAlpha" result="effect2_dropShadow_960_4478"/>
<feOffset dy="4"/>
<feGaussianBlur stdDeviation="4"/>
<feColorMatrix type="matrix" values="0 0 0 0 0 0 0 0 0 0 0 0 0 0 0 0 0 0 0.15 0"/>
<feBlend mode="normal" in2="effect1_dropShadow_960_4478" result="effect2_dropShadow_960_4478"/>
<feBlend mode="normal" in="SourceGraphic" in2="effect2_dropShadow_960_4478" result="shape"/>
</filter>
<radialGradient id="paint0_radial_960_4478" cx="0" cy="0" r="1" gradientUnits="userSpaceOnUse" gradientTransform="translate(44 84.5) rotate(90) scale(3.5 5)">
<stop stop-color="#71787E"/>
<stop offset="1" stop-color="#71787E" stop-opacity="0"/>
</radialGradient>
</defs>
</svg>
