<svg width="40" height="40" viewBox="0 0 40 40" fill="none" xmlns="http://www.w3.org/2000/svg">
<g clip-path="url(#clip0_1_569)">
<path d="M19.9925 10.6396V10.6402C19.7087 10.2362 19.3891 9.85618 19.0353 9.50258C18.2479 8.71518 17.3305 8.09658 16.3089 7.66458C15.5089 7.32598 14.6717 7.11398 13.8105 7.03058L19.8081 4.70758L19.9925 10.6394V10.6396Z" fill="#032041"/>
<path d="M19.9169 26.4444L19.8335 32.9446L19.8207 33.9268L19.8023 35.3606L19.8019 35.3782C17.7759 34.8326 15.8837 34.0148 14.1755 32.945C12.3673 31.8124 10.7891 30.4124 9.48431 28.7834C8.12171 27.0818 7.06571 25.1376 6.34551 23.0054C6.01731 22.0334 5.75891 21.0206 5.57031 19.9722C5.93771 20.599 6.38451 21.1762 6.90531 21.697C7.69291 22.4846 8.60991 23.1026 9.63171 23.5348C9.78031 23.5976 9.93071 23.6564 10.0821 23.7102C10.4503 23.8422 10.8255 23.9486 11.2067 24.0278C11.7825 24.1482 12.3719 24.2088 12.9701 24.2088C14.1277 24.2088 15.2509 23.9816 16.3087 23.5346C17.0199 23.2338 17.6807 22.8428 18.2819 22.3672C18.1065 22.6638 18.0057 23.0096 18.0057 23.3786C18.0057 23.4294 18.0075 23.48 18.0117 23.5306C18.0439 23.9564 18.2123 24.3616 18.4943 24.686L19.6957 26.3008C19.7507 26.3748 19.8285 26.425 19.9165 26.4444H19.9169Z" fill="#032041"/>
<path d="M19.9613 22.9816L19.9519 23.707C19.7731 23.6834 19.6343 23.53 19.6343 23.3448C19.6343 23.1596 19.7779 23.0006 19.9613 22.9816Z" fill="#032041"/>
<path d="M33.0373 10.44C33.2255 10.3146 33.3869 10.1746 33.5227 10.021C34.2151 9.2398 34.2571 8.1098 33.8911 6.761C33.7893 6.3858 33.3243 6.2568 33.0435 6.5256C32.3115 7.2264 31.4719 7.6274 30.5517 7.7966C30.5213 7.8024 30.4905 7.8074 30.4597 7.8126H30.4593C29.8911 7.9072 29.2931 7.9152 28.6715 7.852C28.6709 7.852 28.6703 7.852 28.6699 7.8518C28.3725 7.789 28.0691 7.7428 27.7603 7.7142H27.7597C27.7485 7.712 27.7369 7.7098 27.7257 7.7074L27.7331 7.7116C27.7267 7.711 27.7207 7.7106 27.7141 7.71C27.4861 7.6902 27.2553 7.6802 27.0219 7.6802C24.2413 7.6802 21.7949 9.1102 20.3775 11.275C20.2419 11.4822 20.1155 11.696 19.9997 11.916C19.9321 12.044 19.8679 12.1738 19.8073 12.3056C19.3439 13.313 19.0859 14.4346 19.0859 15.6162C19.0859 16.3614 18.9525 17.0754 18.7081 17.7356C17.8465 20.0644 15.6059 21.7244 12.9775 21.7244C11.8329 21.7244 10.7619 21.4096 9.8465 20.8618C9.3921 20.5902 8.9763 20.2612 8.6085 19.8844C7.5325 18.7836 6.8693 17.2772 6.8693 15.616C6.8693 15.2924 6.8943 14.9748 6.9427 14.665C7.0075 14.2524 7.1133 13.8534 7.2559 13.4728C7.4377 12.987 7.6797 12.531 7.9729 12.1132C7.9889 12.0902 8.0053 12.067 8.0219 12.0442C9.1311 10.5076 10.9375 9.5076 12.9775 9.5076C15.6057 9.5076 17.8465 11.1676 18.7081 13.4964C18.8135 13.0818 18.9505 12.675 19.1189 12.277C19.2655 11.9304 19.4335 11.5962 19.6219 11.2746C18.2047 9.11 15.7581 7.6798 12.9775 7.6798C12.7543 7.6798 12.5337 7.689 12.3153 7.707L12.3143 7.7074H12.3131C12.1825 7.7336 12.0531 7.7574 11.9241 7.7782C11.9193 7.7792 11.9145 7.7798 11.9097 7.7804C11.9097 7.7804 11.9095 7.78053 11.9091 7.7808C11.7013 7.8142 11.4961 7.8404 11.2935 7.8588C11.2931 7.8592 11.2929 7.8594 11.2925 7.8592C10.6567 7.9178 10.0461 7.9012 9.4677 7.7922H9.4673L9.3997 7.8184C9.4199 7.809 9.4397 7.7998 9.4599 7.7908C8.5513 7.6186 7.7217 7.2188 6.9977 6.5258C6.7167 6.2568 6.2515 6.385 6.1497 6.7602C5.7873 8.0956 5.8247 9.2168 6.4969 9.9968C6.6283 10.1492 6.7839 10.2882 6.9653 10.4136V10.414C6.9691 10.4166 6.9729 10.4192 6.9769 10.422C6.9733 10.4258 6.9701 10.4296 6.9667 10.4338C5.9621 11.598 5.2897 13.0576 5.0979 14.6646C5.0607 14.9762 5.0415 15.2938 5.0415 15.6156C5.0415 18.831 6.9535 21.5994 9.7027 22.8468C10.0683 23.0126 10.4485 23.1514 10.8413 23.2608C11.5207 23.4504 12.2373 23.5516 12.9775 23.5516C15.7581 23.5516 18.2049 22.1216 19.6219 19.9566C19.6861 19.8592 19.7477 19.7604 19.8073 19.66C19.8743 19.5472 19.9385 19.4324 19.9997 19.316C20.5833 18.211 20.9135 16.9522 20.9135 15.6158C20.9135 14.8706 21.0469 14.1566 21.2913 13.4964C22.1529 11.1676 24.3935 9.5076 27.0219 9.5076C29.1031 9.5076 30.9415 10.5488 32.0441 12.1384C32.3545 12.5854 32.6065 13.0756 32.7893 13.5986C33.0103 14.23 33.1301 14.9088 33.1301 15.6158C33.1301 17.1286 32.5805 18.5124 31.6693 19.5792C31.3037 20.008 30.8799 20.3854 30.4095 20.6992C29.4401 21.3466 28.2753 21.724 27.0219 21.724C24.3937 21.724 22.1529 20.064 21.2913 17.7352C21.1859 18.1498 21.0489 18.5566 20.8805 18.9546C20.7339 19.3008 20.5659 19.6354 20.3775 19.9566C21.7945 22.1216 24.2413 23.5516 27.0219 23.5516C27.8485 23.5516 28.6457 23.4252 29.3949 23.1906C29.7961 23.0652 30.1833 22.9088 30.5543 22.724C33.1643 21.4244 34.9577 18.7294 34.9577 15.6156C34.9577 13.6376 34.2343 11.8288 33.0373 10.4394V10.44Z" fill="#032041"/>
<path d="M28.0152 14.665C28.0152 15 27.9534 15.3208 27.8398 15.616C27.4572 16.616 26.4886 17.3262 25.3538 17.3262C24.219 17.3262 23.2504 16.616 22.8678 15.616C22.7542 15.3206 22.6924 15 22.6924 14.665C22.6924 13.1952 23.884 12.0036 25.3538 12.0036C26.8236 12.0036 28.0152 13.1952 28.0152 14.665Z" fill="#032041"/>
<path d="M17.638 14.665C17.638 15 17.5762 15.3208 17.4626 15.616C17.08 16.616 16.1114 17.3262 14.9766 17.3262C13.8418 17.3262 12.8732 16.616 12.4906 15.616C12.377 15.3206 12.3152 15 12.3152 14.665C12.3152 13.1952 13.5068 12.0036 14.9766 12.0036C16.4464 12.0036 17.638 13.1952 17.638 14.665Z" fill="#032041"/>
<path d="M20.0001 21.8334L19.9988 21.8347H20.0011C20.0011 21.8347 20.0005 21.834 20.0001 21.8334Z" fill="#032041"/>
<path d="M21.5367 23.2256C21.4595 22.4458 20.8003 21.8344 20.0003 21.8342H19.9989C19.9913 21.8342 19.9835 21.8342 19.9761 21.8344C19.1869 21.846 18.5393 22.453 18.4627 23.2252C18.4577 23.2758 18.4551 23.327 18.4551 23.3786C18.4551 23.7536 18.5913 24.115 18.8383 24.3966L18.8495 24.4108L19.9245 25.8558C19.9433 25.8812 19.9717 25.8938 20.0001 25.8938C20.0285 25.8938 20.0569 25.8812 20.0757 25.856L21.1533 24.4148C21.1565 24.4108 21.1591 24.4064 21.1615 24.4018L21.1631 24.399C21.1661 24.393 21.1699 24.3874 21.1741 24.3822L21.1841 24.3702C21.4165 24.0928 21.5441 23.7408 21.5441 23.3786C21.5441 23.327 21.5415 23.2758 21.5367 23.2256ZM19.9997 24.159C19.9817 24.159 19.9641 24.1584 19.9465 24.1572C19.5223 24.13 19.1855 23.776 19.1855 23.345C19.1855 22.914 19.5331 22.5488 19.9671 22.5316C19.9779 22.5312 19.9887 22.5308 19.9997 22.5308C20.4487 22.5308 20.8137 22.896 20.8137 23.345C20.8137 23.794 20.4487 24.159 19.9997 24.159Z" fill="#032041"/>
<path d="M20.0001 21.8334L19.9988 21.8347H20.0011C20.0011 21.8347 20.0005 21.834 20.0001 21.8334Z" fill="#032041"/>
<path d="M12.0247 7.73681C11.7773 7.76641 11.5331 7.80761 11.2933 7.85921C11.4961 7.84081 11.7015 7.81461 11.9091 7.78141C11.9091 7.78141 11.9094 7.78128 11.9099 7.78101C11.9143 7.78021 11.9193 7.77961 11.9241 7.77881L12.0371 7.73541C12.0329 7.73581 12.0289 7.73661 12.0247 7.73681ZM20.1183 3.94561L19.8115 3.83081L19.5059 3.94801L10.4435 7.41901C11.2599 7.16681 12.1093 7.03921 12.9773 7.03921C13.2393 7.03921 13.4989 7.05041 13.7567 7.07361C13.7589 7.07401 13.7611 7.07401 13.7635 7.07441L19.8071 4.75961L19.8153 4.75661L26.0607 7.09201C26.3777 7.05681 26.6983 7.03921 27.0215 7.03921C27.6975 7.03921 28.3617 7.11621 29.0079 7.27001L20.1185 3.94561H20.1183ZM27.7599 7.71401C28.0679 7.77541 28.3713 7.82181 28.6691 7.85161C28.3721 7.78881 28.0685 7.74281 27.7599 7.71401ZM27.7633 7.72861L27.7329 7.71181C27.7415 7.71261 27.7505 7.71321 27.7591 7.71401C27.7479 7.71181 27.7363 7.70961 27.7251 7.70721L27.7325 7.71161C27.7261 7.71081 27.7201 7.71041 27.7135 7.70981L27.7633 7.72861ZM6.96533 10.4142C6.96613 10.421 6.96613 10.4276 6.96653 10.434C6.97033 10.4298 6.97333 10.4262 6.97693 10.4224C6.97273 10.4194 6.96913 10.4168 6.96533 10.4142Z" fill="#032041"/>
<path d="M34.9244 18.955C34.4922 19.976 33.8742 20.8934 33.0866 21.681C32.299 22.4686 31.3816 23.0868 30.3606 23.519C30.2932 23.5474 30.2254 23.575 30.1578 23.6016C29.7832 23.749 29.4004 23.8692 29.0114 23.9616C28.364 24.1156 27.6984 24.1932 27.0216 24.1932C25.864 24.1932 24.7408 23.9664 23.6826 23.519C22.97 23.2174 22.308 22.8252 21.7056 22.3482C21.8878 22.649 21.993 23.0018 21.993 23.3786C21.993 23.4294 21.9912 23.4804 21.987 23.5308C22.4252 23.8104 22.8872 24.0528 23.3706 24.2574C24.5278 24.7466 25.7566 24.995 27.0216 24.995C27.5208 24.995 28.0172 24.9556 28.5052 24.8782C28.7382 24.8412 28.9686 24.7958 29.197 24.7416C29.3448 24.706 29.4924 24.6672 29.6396 24.6246C29.9146 24.5448 30.1862 24.452 30.4514 24.3472C30.527 24.318 30.6014 24.287 30.673 24.2572C31.7386 23.8062 32.7 23.1702 33.533 22.3662C32.7928 24.409 31.7422 26.3562 30.4166 28.1086C29.0686 29.8908 27.481 31.4166 25.6982 32.6444C23.8854 33.893 21.905 34.8064 19.809 35.3624C19.8068 35.3616 19.8046 35.3612 19.8024 35.3604C17.786 34.8168 15.9018 34.003 14.1998 32.9396C14.0744 32.8612 13.9502 32.7818 13.8268 32.7002C12.1782 31.6182 10.7302 30.3072 9.51719 28.7996C8.15619 27.1074 7.09879 25.1738 6.37439 23.0534C6.24639 22.677 6.12819 22.2944 6.02039 21.9064C6.12559 22.0224 6.23439 22.1364 6.34559 22.248C7.20619 23.1084 8.20919 23.7846 9.32679 24.2574C9.48879 24.326 9.65459 24.3904 9.81879 24.4494C10.0722 24.54 10.331 24.62 10.5922 24.6886C10.7442 24.7286 10.8968 24.7644 11.0494 24.7966C11.2654 24.842 11.4834 24.8794 11.7034 24.9088C12.1232 24.9662 12.5498 24.995 12.9774 24.995C14.2424 24.995 15.4708 24.7466 16.6288 24.2572C17.1122 24.0524 17.5738 23.81 18.012 23.5306C18.008 23.48 18.006 23.4294 18.006 23.3786C18.006 23.0096 18.1066 22.664 18.2822 22.3672C18.286 22.361 18.2896 22.3546 18.2934 22.3482C17.691 22.8252 17.0292 23.2174 16.3164 23.519C15.2582 23.9664 14.135 24.1932 12.9774 24.1932C12.3788 24.1932 11.7896 24.1326 11.2136 24.012C10.8324 23.9324 10.4572 23.8264 10.0894 23.6948C9.93779 23.6406 9.78739 23.5818 9.63879 23.519C8.61699 23.0868 7.69999 22.4686 6.91279 21.681C6.12519 20.8934 5.50679 19.976 5.07459 18.955C4.79059 18.2838 4.59559 17.5864 4.49139 16.8702C4.45659 16.4582 4.43179 16.0404 4.41719 15.616H4.40039C4.40039 15.6524 4.40079 15.6886 4.40119 15.7246C4.44419 26.874 11.2006 33.96 19.8072 36.1906C29.124 33.8302 35.2274 24.9808 35.5848 16.113C35.529 17.0952 35.3076 18.0492 34.9244 18.955ZM19.9996 20.5436C19.8738 20.7198 19.8072 20.8066 19.8072 20.8066C19.6022 21.0758 19.381 21.3328 19.1438 21.5782C19.1486 21.576 19.1536 21.5736 19.1584 21.5714C19.4092 21.4544 19.6878 21.3878 19.982 21.3856C19.988 21.3852 19.9936 21.3852 19.9996 21.3852C20.306 21.3852 20.5962 21.4548 20.856 21.5786C20.542 21.2542 20.2566 20.9088 19.9996 20.5436Z" fill="#032041"/>
</g>
<defs>
<clipPath id="clip0_1_569">
<rect width="40" height="40" fill="white"/>
</clipPath>
</defs>
</svg>
